<?xml version="1.0" encoding="utf-8"?>
<!-- Generator: Adobe Illustrator 19.2.1, SVG Export Plug-In . SVG Version: 6.00 Build 0)  -->
<svg version="1.1" id="Layer_1" xmlns="http://www.w3.org/2000/svg" xmlns:xlink="http://www.w3.org/1999/xlink" x="0px" y="0px"
	 viewBox="0 0 400 400" style="enable-background:new 0 0 400 400;" xml:space="preserve">
<style type="text/css">
	.st0{fill:#FFFFFF;}
</style>
<g>
	<path class="st0" d="M329.2,203.5c3.5,4.5,5.5,9.5,5.5,15.1c0,8-4,15.1-10.5,19.6c-7-12-21.6-14.6-29.1-15.1c-1.5-6-5-11.5-10-15.6
		c-2-2-5.5-1.5-7.5,0.5c-2,2-1.5,5.5,0.5,7c4.5,3.5,7,9,7,14.6c0,10.5-8.5,18.6-19.1,18.6c-10.5,0-19.1-8.5-19.1-18.6
		c0-4.5,1.5-9,4.5-12c0,0,0,0,0-0.5c1.5,0,3-0.5,4.5-1c11-4,16.6-16.1,12.5-26.6c-1-2.5-4-4-6.5-3s-4,4-3,6.5c2,5.5-1,11.5-6.5,13.6
		c-5.5,2-11.5-0.5-13.6-6c-1-2.5-4-4-6.5-3c-2.5,1-4,4-3,6.5c2,5.5,6.5,9.5,11.5,11.5c-2.5,4-3.5,9-3.5,14.1
		c0,16.1,13,29.1,29.6,29.1c15.1,0,27.6-11,29.1-25.6c6.5,0.5,17.6,3,21.1,13.6c0,0.5,0.5,1,0.5,1.5l0,0c3.5,4.5,5,10,5,16.1
		c0,11.5-7,21.6-17.6,25.6c-1.5-10-8.5-16.6-8.5-16.6c-2-2-5.5-2-7.5,0c-2,2-2,5.5,0,7c0,0,6.5,6.5,6,15.6v0.5v0.5c0,1,0,2,0,2.5
		c0,10-8.5,18.6-19.1,18.6c-2.5,0-5-0.5-7-1.5c2.5-6,2.5-15.1-4.5-25.1c3.5-5.5,3.5-13-1-18.6c-1.5-2.5-5-3-7-1c-2.5,1.5-3,5-1,7
		c2,3,1.5,7-1.5,9.5c-3,2-7,1.5-9.5-1.5c-1.5-2.5-5-3-7-1c-2.5,1.5-3,5-1,7c3.5,4.5,8.5,7,14.1,7c2.5,0,4.5-0.5,7-1.5
		c6.5,9.5,2,16.1,1,17.1c-0.5,0.5-0.5,1-0.5,1s0,0,0,0.5c-2.5,7.5-9.5,12.5-18.1,12.5c-10.5,0-19.1-8.5-19.1-18.6v-35.1
		c0-2.5,0.5-5,1.5-7c4.5,3,12,6.5,22.1,6.5c0.5,0,1,0,1.5,0c3,0,5-2.5,5-5s-2.5-5-5-5l0,0c-0.5,0-1,0-1,0c-12,0-18.6-6-19.6-7
		c-2.5-3.5-4-8-4-12.5v-45.2c0-8,4.5-15.6,12-19.6c0,0,0,0,0.5-0.5l0,0c1-1,11.5-7.5,22.1,1.5c1,1,2,1,3.5,1s3-0.5,4-2
		c2-2,1.5-5.5-0.5-7c-12-10-24.6-7.5-32.1-4c-6-3.5-9.5-10-9.5-17.1V80.6c0-5.5,4.5-10.5,10.5-10.5c3.5,0,7,2,9,5
		c-1,4-3,10-6.5,11.5c-2.5,1.5-3.5,4.5-2,7c1,1.5,2.5,2.5,4.5,2.5c1,0,2,0,2.5-0.5c7-4,10-13,11-17.6c1-0.5,3-1,4.5-1
		c7,0,13,4.5,15.1,10.5c0,3,0,14.1-6.5,21.1c-2.5,2.5-5.5,4.5-9.5,5.5c-1-5.5-5-10-10.5-12c-2.5-1-5.5,0.5-6.5,3
		c-1,2.5,0.5,5.5,3,6.5c3,1,5,4.5,3.5,7.5c-1,3-4.5,4.5-7.5,3.5c-2.5-1-5.5,0.5-6.5,3s0.5,5.5,3,6.5c2,0.5,3.5,1,5.5,1
		c6,0,12-3.5,14.6-9c7.5-1,14.1-4,18.6-9c6.5-7.5,8.5-17.1,9-23.1c8.5,2,14.6,9,14.6,18.1c0,1,0,1.5,0,2.5c0,0.5,0,0.5,0,1
		c-0.5,3-2,8.5-4,10c-2.5,1.5-3,4.5-1.5,7c1,1.5,2.5,2.5,4.5,2.5c1,0,2-0.5,3-1c5-3,7-9,8-13.6c8.5,2,14.6,9,14.6,18.1
		c0,1.5,0,3-0.5,4.5c-9-4-23.6-6-38.6,3.5c-4.5-3-9.5-4-15.1-4c-6.5,0.5-12.5,3.5-16.6,8c-2,2-1.5,5.5,0.5,7c2,2,5.5,1.5,7.5-0.5
		c2.5-2.5,6-4.5,9.5-4.5c3.5,0,7.5,1,10,3.5c6,5,6.5,13.6,1.5,19.6c-2,2-1.5,5.5,0.5,7c1,1,2,1.5,3.5,1.5c1.5,0,3-0.5,4-1.5
		c7-8,7.5-19.6,2.5-28.1c16.6-9.5,29.6,0,30.6,0.5h0.5c0,0,0,0,0.5,0c10,5,16.1,15.6,16.1,26.1c0,4-1,8-2.5,11.5c-4-3-8-4.5-11-5
		c-2-8-8-14.6-16.1-17.6c-2.5-1-5.5,0.5-6.5,3.5c-1,2.5,0.5,5.5,3.5,6.5c5.5,2,9.5,7,9.5,12.5c0,5-2.5,9.5-7,12
		c-2.5,1.5-3.5,4.5-2,7c1,1.5,2.5,2.5,4.5,2.5c1,0,2,0,2.5-0.5c6-3.5,10-9,11.5-15.6c2.5,0.5,5,2,7.5,6
		C328.7,203,328.7,203.5,329.2,203.5L329.2,203.5z"/>
	<g>
		<g>
			<path class="st0" d="M199.2,154.3V80.6c0-11.5-9.5-20.6-21.1-20.6c-6.5,0-12.5,3-16.6,8c-2.5-1-5-1-7.5-1c-10,0-19.6,6-24.1,15.1
				c-14.6,1.5-25.6,13-26.6,27.1c-13.6,2.5-24.1,14.1-24.1,28.1c0,3.5,0.5,7,2,10c-10.5,7.5-17.1,19.6-17.1,32.6
				c0,7,2,14.1,5.5,20.1c-3.5,5.5-5.5,12-5.5,18.6c0,12,6,22.6,16.1,28.6c-2.5,5.5-4,11.5-4,17.1c0,17.1,11.5,31.6,27.6,36.1
				c0.5,15.6,13,28.1,29.1,28.1c4,0,8-1,12-2.5c5,8.5,14.6,14.1,25.1,14.1c16.1,0,29.1-13,29.1-28.6v-35.1c0-5.5-1.5-10.5-4-15.1
				c2.5-4.5,4-10,4-15.6v-45.2c0-9-4-18.1-10.5-24.1C195.2,171.4,199.2,162.9,199.2,154.3z M189.2,154.3L189.2,154.3L189.2,154.3
				c0,7-3.5,13.6-9.5,17.1c-7-3.5-20.1-6-32.1,4c-2,2-2.5,5-0.5,7c1,1,2.5,2,4,2c1,0,2.5-0.5,3.5-1c11-9,21.1-2.5,22.1-1.5l0,0
				c0,0,0,0,0.5,0c7.5,4,12,11.5,12,19.6v45.2c0,4.5-1.5,8.5-4,12.5c-1,1-8,7-19.6,7c-0.5,0-1,0-1,0l0,0c-3,0-5,2-5,5c0,3,2,5,5,5
				c0.5,0,1,0,1.5,0c10,0,17.6-3.5,22.1-6.5c1,2.5,1.5,4.5,1.5,7v35.1c0,10-8.5,18.6-19.1,18.6c-8,0-15.6-5-18.1-12.5c0,0,0,0,0-0.5
				c0-0.5-0.5-1-0.5-1c-0.5-1-5-7.5,1-17.1c2,1,4.5,1.5,7,1.5c5.5,0,10.5-2.5,14.1-7c1.5-2.5,1-5.5-1-7c-2.5-1.5-5.5-1-7,1
				c-2,3-6.5,3.5-9.5,1.5c-3-2-3.5-6.5-1.5-9.5c1.5-2.5,1-5.5-1-7c-2.5-1.5-5.5-1-7,1c-4,5.5-4,13-1,18.6c-7,9.5-6.5,18.6-4.5,25.1
				c-2.5,1-4.5,1.5-7,1.5c-10.5,0-19.1-8.5-19.1-18.6c0-1,0-2,0-2.5v-0.5v-0.5c-1-9,5.5-15.6,6-15.6c2-2,2-5,0-7c-2-2-5-2-7.5,0
				c-0.5,0.5-7,7-8.5,16.6c-10.5-4-17.6-14.1-17.6-25.6c0-5.5,2-11,5-16.1l0,0c0.5-0.5,0.5-1,0.5-1.5c3.5-10.5,14.6-13,21.1-13.6
				c2,14.1,14.1,25.6,29.1,25.6c16.1,0,29.6-13,29.6-29.1c0-5-1.5-9.5-3.5-14.1c5-2,9.5-6,11.5-11.5c1-2.5-0.5-5.5-3-6.5
				s-5.5,0.5-6.5,3c-2,5.5-8,8-14.1,6c-5.5-2-8.5-8-6.5-13.6c1-2.5-0.5-5.5-3-6.5s-5.5,0.5-6.5,3c-4,10.5,1.5,22.6,12.5,26.6
				c1.5,0.5,3,1,4.5,1c0,0,0,0,0,0.5c3,3.5,4.5,7.5,4.5,12c0,10.5-8.5,18.6-19.1,18.6c-10.5,0-19.1-8.5-19.1-18.6
				c0-5.5,2.5-11,7-14.6c2-2,2.5-5,0.5-7c-2-2-5-2.5-7.5-0.5c-5,4-8.5,9.5-10,15.6c-7.5,0.5-21.6,3-29.1,15.1
				c-6.5-4.5-10.5-11.5-10.5-19.6c0-5.5,2-11,5.5-15.1l0,0c0,0,0,0,0.5-0.5c2-4.5,5-6.5,7-7c1.5,6.5,5.5,12,11.5,15.6
				c1,0.5,1.5,0.5,2.5,0.5c2,0,3.5-1,4.5-2.5c1.5-2.5,0.5-5.5-2-7c-4.5-2.5-7-7-7-12c0-6,4-11,9.5-13c2.5-1,4-3.5,3.5-6.5
				c-1-2.5-4-4-6.5-3.5c-8,2.5-14.6,9.5-16.1,17.6c-3,0.5-7.5,1.5-11,5c-1.5-3.5-2.5-7.5-2.5-11.5c0-11,6-21.1,16.1-26.6
				c0,0,0,0,0.5,0h0.5c0.5-0.5,14.1-10,30.6-0.5c-5.5,8.5-5,20.1,2.5,28.1c1,1,2.5,1.5,4,1.5c1,0,2.5-0.5,3.5-1.5c2-2,2.5-5,0.5-7
				c-5-5.5-4.5-14.6,1.5-19.6c3-2.5,6.5-3.5,10-3.5c3.5,0,7,2,9.5,4.5c2,2,5,2.5,7.5,0.5c2-2,2.5-5,0.5-7c-4.5-5-10-7.5-16.6-8
				c-5.5-0.5-10.5,1-15.1,4c-15.1-9.5-29.6-7.5-38.6-3.5c-0.5-1.5-0.5-3-0.5-4.5c0-8.5,6-16.1,14.6-18.1c1,4.5,3.5,10.5,8,13.6
				c1,0.5,2,1,3,1c1.5,0,3.5-1,4.5-2.5c1.5-2.5,1-5.5-1.5-7c-2.5-1.5-4-7-4-10c0-0.5,0-0.5,0-1c0-1,0-1.5,0-2.5
				c0-9,6.5-16.1,14.6-18.1c0.5,6,2.5,16.1,9,23.1c4.5,5,11,8,18.6,9c3,5.5,8.5,9,14.6,9c2,0,3.5-0.5,5.5-1c2.5-1,4-4,3-6.5
				s-4-4-6.5-3c-3,1-6.5-0.5-7.5-3.5c-1-3,0.5-6.5,3.5-7.5c2.5-1,4-4,3-6.5s-4-4-6.5-3c-5.5,2-9.5,6.5-10.5,12c-4-1-7-2.5-9.5-5.5
				c-6.5-7-6.5-18.6-6.5-21.1c1-5.5,7-10,14.1-10c2,0,3.5,0.5,5.5,1c1,5,4,13.6,11,17.6c1,0.5,1.5,0.5,2.5,0.5c2,0,3.5-1,4.5-2.5
				c1.5-2.5,0.5-5.5-2-7c-3-2-5.5-7.5-6.5-11.5c2-3,5-5,9-5c6,0,10.5,4.5,10.5,10.5L189.2,154.3L189.2,154.3z"/>
		</g>
	</g>
</g>
</svg>
