<?xml version="1.0" encoding="utf-8"?>
<!-- Generator: Adobe Illustrator 19.2.1, SVG Export Plug-In . SVG Version: 6.00 Build 0)  -->
<svg version="1.1" id="Layer_1" xmlns="http://www.w3.org/2000/svg" xmlns:xlink="http://www.w3.org/1999/xlink" x="0px" y="0px"
	 viewBox="0 0 50 50" style="enable-background:new 0 0 50 50;" xml:space="preserve">
<style type="text/css">
	.st0{fill:#FFFFFF;}
</style>
<g>
	<path class="st0" d="M40.3,34c-0.4-0.4-1-0.4-1.4,0c-0.4,0.4-0.4,1,0,1.4l1.9,1.9c0.5,0.5,0.7,1.1,0.7,1.7c0,0.6-0.3,1.3-0.7,1.7
		l0,0c-0.5,0.5-1.1,0.7-1.7,0.7c-0.6,0-1.3-0.3-1.7-0.7l-1.9-1.9c-0.3-0.3-0.9-0.4-1.2-0.1c-1.8,1.2-3.8,2-5.9,2.4
		c-0.5,0.1-0.8,0.5-0.8,1v2.7c0,1.3-1.1,2.4-2.4,2.4H25c-1.3,0-2.4-1.1-2.4-2.4v-2.7c0-0.5-0.3-0.9-0.8-1c-2.1-0.4-4.1-1.2-5.9-2.4
		c-0.4-0.3-0.9-0.2-1.2,0.1l-1.9,1.9c-0.5,0.5-1.1,0.7-1.7,0.7c-0.6,0-1.3-0.3-1.7-0.7l0,0c-0.5-0.5-0.7-1.1-0.7-1.7
		c0-0.6,0.3-1.3,0.7-1.7l1.9-1.9c0.3-0.3,0.4-0.9,0.1-1.2c-1.2-1.8-2-3.8-2.4-5.9c-0.1-0.5-0.5-0.8-1-0.8H5.2
		c-1.3,0-2.4-1.1-2.4-2.4V25c0-1.3,1.1-2.4,2.4-2.4h2.7c0.5,0,0.9-0.3,1-0.8c0.4-2.1,1.2-4.1,2.4-5.9c0.3-0.4,0.2-0.9-0.1-1.2
		l-1.9-1.9c-0.5-0.5-0.7-1.1-0.7-1.7s0.3-1.3,0.7-1.7l0,0c0.5-0.5,1.1-0.7,1.7-0.7c0.6,0,1.3,0.3,1.7,0.7l1.9,1.9
		c0.4,0.4,1,0.4,1.4,0c0.4-0.4,0.4-1,0-1.4l-1.9-1.9C13.3,7,12.2,6.5,11,6.5C9.8,6.5,8.7,7,7.9,7.8l0,0C7,8.7,6.5,9.8,6.5,11
		s0.5,2.3,1.3,3.1l1.4,1.4c-1,1.6-1.7,3.3-2.1,5.1H5.2c-2.4,0-4.4,2-4.4,4.4V25c0,2.4,2,4.4,4.4,4.4h1.9c0.4,1.8,1.2,3.5,2.1,5.1
		l-1.4,1.4C7,36.7,6.5,37.8,6.5,39s0.5,2.3,1.3,3.1l0,0c0.8,0.8,1.9,1.3,3.1,1.3s2.3-0.5,3.1-1.3l1.4-1.4c1.6,1,3.3,1.7,5.1,2.1v1.9
		c0,2.4,2,4.4,4.4,4.4H25c2.4,0,4.4-2,4.4-4.4v-1.9c1.8-0.4,3.5-1.2,5.1-2.1l1.4,1.4c0.8,0.8,1.9,1.3,3.1,1.3s2.3-0.5,3.1-1.3l0,0
		c0.8-0.8,1.3-1.9,1.3-3.1c0-1.2-0.5-2.3-1.3-3.1L40.3,34z"/>
	<path class="st0" d="M44.8,20.6h-1.9c-0.4-1.8-1.2-3.5-2.1-5.1l1.4-1.4c1.7-1.7,1.7-4.5,0-6.2l0,0C41.3,7,40.2,6.5,39,6.5
		S36.7,7,35.9,7.8l-1.4,1.4c-1.6-1-3.3-1.7-5.1-2.1V5.2c0-2.4-2-4.4-4.4-4.4H25c-2.4,0-4.4,2-4.4,4.4v2.7c0,0.5,0.4,1,1,1
		c0.5,0,1-0.4,1-1V5.2c0-1.3,1.1-2.4,2.4-2.4H25c1.3,0,2.4,1.1,2.4,2.4v2.7c0,0.5,0.3,0.9,0.8,1c2.1,0.4,4.1,1.2,5.9,2.4
		c0.4,0.3,0.9,0.2,1.2-0.1l1.9-1.9c0.5-0.5,1.1-0.7,1.7-0.7c0.6,0,1.3,0.3,1.7,0.7l0,0c0.5,0.5,0.7,1.1,0.7,1.7
		c0,0.6-0.3,1.3-0.7,1.7l-1.9,1.9c-0.3,0.3-0.4,0.9-0.1,1.2c1.2,1.8,2,3.8,2.4,5.9c0.1,0.5,0.5,0.8,1,0.8h2.7c1.3,0,2.4,1.1,2.4,2.4
		V25c0,1.3-1.1,2.4-2.4,2.4h-2.7c-0.5,0-1,0.4-1,1c0,0.5,0.4,1,1,1h2.7c2.4,0,4.4-2,4.4-4.4V25C49.2,22.5,47.3,20.6,44.8,20.6z"/>
	<path class="st0" d="M25,28.7c-0.9,0-1.7-0.3-2.3-0.8c-0.4-0.3-1-0.3-1.4,0.1c-0.3,0.4-0.3,1,0.1,1.4c1,0.8,2.3,1.3,3.6,1.3
		c3.1,0,5.7-2.6,5.7-5.7c0-3.1-2.6-5.7-5.7-5.7s-5.7,2.6-5.7,5.7c0,0.5,0.4,1,1,1s1-0.4,1-1c0-2.1,1.7-3.7,3.7-3.7s3.7,1.7,3.7,3.7
		S27.1,28.7,25,28.7z"/>
</g>
</svg>
