<?xml version="1.0" encoding="utf-8"?>
<!-- Generator: Adobe Illustrator 19.2.1, SVG Export Plug-In . SVG Version: 6.00 Build 0)  -->
<svg version="1.1" id="Layer_1" xmlns="http://www.w3.org/2000/svg" xmlns:xlink="http://www.w3.org/1999/xlink" x="0px" y="0px"
	 viewBox="0 0 50 50" style="enable-background:new 0 0 50 50;" xml:space="preserve">
<style type="text/css">
	.st0{fill:#FFFFFF;}
</style>
<g>
	<path class="st0" d="M49.1,24.3l-5.3-3.7c-0.4-0.3-0.8-0.3-1.2-0.1c-0.4,0.2-0.6,0.6-0.6,1v2.6H16.3c-0.6,0-1.2,0.5-1.2,1.2
		c0,0.6,0.5,1.2,1.2,1.2H42V29c0,0.4,0.2,0.8,0.6,1c0.4,0.2,0.9,0.2,1.2-0.1l5.3-3.7c0.3-0.2,0.5-0.6,0.5-1
		C49.6,24.8,49.4,24.5,49.1,24.3z"/>
	<path class="st0" d="M41.9,34.8c-0.3-0.2-0.6-0.2-0.9-0.1c-0.3,0.1-0.6,0.3-0.7,0.5c-3.6,6.1-10.2,10-17.3,10
		c-11,0-19.9-8.9-19.9-19.9C3.1,14.3,12,5.3,23,5.3c7.1,0,13.7,3.8,17.3,10c0.2,0.3,0.4,0.5,0.7,0.5c0.3,0.1,0.6,0,0.9-0.1
		c0.6-0.3,0.8-1,0.4-1.6C38.3,7.2,30.9,3,23,3C10.7,3,0.8,13,0.8,25.2c0,12.3,10,22.3,22.3,22.3c7.9,0,15.3-4.3,19.3-11.1
		C42.6,35.8,42.4,35.1,41.9,34.8z"/>
</g>
</svg>
