<?xml version="1.0" encoding="utf-8"?>
<!-- Generator: Adobe Illustrator 19.2.1, SVG Export Plug-In . SVG Version: 6.00 Build 0)  -->
<svg version="1.1" id="Layer_1" xmlns="http://www.w3.org/2000/svg" xmlns:xlink="http://www.w3.org/1999/xlink" x="0px" y="0px"
	 viewBox="0 0 300 65" style="enable-background:new 0 0 300 65;" xml:space="preserve">
<style type="text/css">
	.st0{fill:#FFFFFF;}
</style>
<path class="st0" d="M54.4,33.2c0.7,0.9,1.1,1.9,1.1,3c0,1.6-0.8,3-2.1,3.9c-1.4-2.4-4.3-2.9-5.8-3c-0.3-1.2-1-2.3-2-3.1
	c-0.4-0.4-1.1-0.3-1.5,0.1c-0.4,0.4-0.3,1.1,0.1,1.4c0.9,0.7,1.4,1.8,1.4,2.9c0,2.1-1.7,3.7-3.8,3.7c-2.1,0-3.8-1.7-3.8-3.7
	c0-0.9,0.3-1.8,0.9-2.4c0,0,0,0,0-0.1c0.3,0,0.6-0.1,0.9-0.2c2.2-0.8,3.3-3.2,2.5-5.3c-0.2-0.5-0.8-0.8-1.3-0.6
	c-0.5,0.2-0.8,0.8-0.6,1.3c0.4,1.1-0.2,2.3-1.3,2.7c-1.1,0.4-2.3-0.1-2.7-1.2c-0.2-0.5-0.8-0.8-1.3-0.6c-0.5,0.2-0.8,0.8-0.6,1.3
	c0.4,1.1,1.3,1.9,2.3,2.3c-0.5,0.8-0.7,1.8-0.7,2.8c0,3.2,2.6,5.8,5.9,5.8c3,0,5.5-2.2,5.8-5.1c1.3,0.1,3.5,0.6,4.2,2.7
	c0,0.1,0.1,0.2,0.1,0.3c0,0,0,0,0,0c0.7,0.9,1,2,1,3.2c0,2.3-1.4,4.3-3.5,5.1c-0.3-2-1.7-3.3-1.7-3.3c-0.4-0.4-1.1-0.4-1.5,0
	c-0.4,0.4-0.4,1.1,0,1.4c0,0,1.3,1.3,1.2,3.1c0,0,0,0.1,0,0.1c0,0,0,0.1,0,0.1c0,0.2,0,0.4,0,0.5c0,2-1.7,3.7-3.8,3.7
	c-0.5,0-1-0.1-1.4-0.3c0.5-1.2,0.5-3-0.9-5c0.7-1.1,0.7-2.6-0.2-3.7c-0.3-0.5-1-0.6-1.4-0.2c-0.5,0.3-0.6,1-0.2,1.4
	c0.4,0.6,0.3,1.4-0.3,1.9c-0.6,0.4-1.4,0.3-1.9-0.3c-0.3-0.5-1-0.6-1.4-0.2c-0.5,0.3-0.6,1-0.2,1.4c0.7,0.9,1.7,1.4,2.8,1.4
	c0.5,0,0.9-0.1,1.4-0.3c1.3,1.9,0.4,3.2,0.2,3.4c-0.1,0.1-0.1,0.2-0.1,0.2c0,0,0,0,0,0.1c-0.5,1.5-1.9,2.5-3.6,2.5
	c-2.1,0-3.8-1.7-3.8-3.7v-7c0-0.5,0.1-1,0.3-1.4c0.9,0.6,2.4,1.3,4.4,1.3c0.1,0,0.2,0,0.3,0c0.6,0,1-0.5,1-1c0-0.5-0.5-1-1-1h0
	c-0.1,0-0.2,0-0.2,0c-2.4,0-3.7-1.2-3.9-1.4c-0.5-0.7-0.8-1.6-0.8-2.5v-9c0-1.6,0.9-3.1,2.4-3.9c0,0,0,0,0.1-0.1c0,0,0,0,0,0
	c0.2-0.2,2.3-1.5,4.4,0.3c0.2,0.2,0.4,0.2,0.7,0.2c0.3,0,0.6-0.1,0.8-0.4c0.4-0.4,0.3-1.1-0.1-1.4c-2.4-2-4.9-1.5-6.4-0.8
	c-1.2-0.7-1.9-2-1.9-3.4V8.7c0-1.1,0.9-2.1,2.1-2.1c0.7,0,1.4,0.4,1.8,1c-0.2,0.8-0.6,2-1.3,2.3c-0.5,0.3-0.7,0.9-0.4,1.4
	c0.2,0.3,0.5,0.5,0.9,0.5c0.2,0,0.4,0,0.5-0.1c1.4-0.8,2-2.6,2.2-3.5C38.9,8.1,39.3,8,39.6,8c1.4,0,2.6,0.9,3,2.1
	c0,0.6,0,2.8-1.3,4.2c-0.5,0.5-1.1,0.9-1.9,1.1c-0.2-1.1-1-2-2.1-2.4c-0.5-0.2-1.1,0.1-1.3,0.6c-0.2,0.5,0.1,1.1,0.6,1.3
	c0.6,0.2,1,0.9,0.7,1.5c-0.2,0.6-0.9,0.9-1.5,0.7c-0.5-0.2-1.1,0.1-1.3,0.6c-0.2,0.5,0.1,1.1,0.6,1.3c0.4,0.1,0.7,0.2,1.1,0.2
	c1.2,0,2.4-0.7,2.9-1.8c1.5-0.2,2.8-0.8,3.7-1.8c1.3-1.5,1.7-3.4,1.8-4.6c1.7,0.4,2.9,1.8,2.9,3.6c0,0.2,0,0.3,0,0.5
	c0,0.1,0,0.1,0,0.2c-0.1,0.6-0.4,1.7-0.8,2c-0.5,0.3-0.6,0.9-0.3,1.4c0.2,0.3,0.5,0.5,0.9,0.5c0.2,0,0.4-0.1,0.6-0.2
	c1-0.6,1.4-1.8,1.6-2.7c1.7,0.4,2.9,1.8,2.9,3.6c0,0.3,0,0.6-0.1,0.9c-1.8-0.8-4.7-1.2-7.7,0.7c-0.9-0.6-1.9-0.8-3-0.8
	c-1.3,0.1-2.5,0.7-3.3,1.6c-0.4,0.4-0.3,1.1,0.1,1.4c0.4,0.4,1.1,0.3,1.5-0.1c0.5-0.5,1.2-0.9,1.9-0.9c0.7,0,1.5,0.2,2,0.7
	c1.2,1,1.3,2.7,0.3,3.9c-0.4,0.4-0.3,1.1,0.1,1.4c0.2,0.2,0.4,0.3,0.7,0.3c0.3,0,0.6-0.1,0.8-0.3c1.4-1.6,1.5-3.9,0.5-5.6
	c3.3-1.9,5.9,0,6.1,0.1c0,0,0.1,0,0.1,0c0,0,0,0,0.1,0c2,1,3.2,3.1,3.2,5.2c0,0.8-0.2,1.6-0.5,2.3c-0.8-0.6-1.6-0.9-2.2-1
	c-0.4-1.6-1.6-2.9-3.2-3.5c-0.5-0.2-1.1,0.1-1.3,0.7c-0.2,0.5,0.1,1.1,0.7,1.3c1.1,0.4,1.9,1.4,1.9,2.5c0,1-0.5,1.9-1.4,2.4
	c-0.5,0.3-0.7,0.9-0.4,1.4c0.2,0.3,0.5,0.5,0.9,0.5c0.2,0,0.4,0,0.5-0.1c1.2-0.7,2-1.8,2.3-3.1c0.5,0.1,1,0.4,1.5,1.2
	C54.3,33.1,54.3,33.2,54.4,33.2C54.4,33.2,54.4,33.2,54.4,33.2z"/>
<g>
	<g>
		<path class="st0" d="M28.5,23.4V8.7c0-2.3-1.9-4.1-4.2-4.1c-1.3,0-2.5,0.6-3.3,1.6c-0.5-0.2-1-0.2-1.5-0.2c-2,0-3.9,1.2-4.8,3
			c-2.9,0.3-5.1,2.6-5.3,5.4c-2.7,0.5-4.8,2.8-4.8,5.6c0,0.7,0.1,1.4,0.4,2c-2.1,1.5-3.4,3.9-3.4,6.5c0,1.4,0.4,2.8,1.1,4
			c-0.7,1.1-1.1,2.4-1.1,3.7c0,2.4,1.2,4.5,3.2,5.7C4.3,43,4,44.2,4,45.3c0,3.4,2.3,6.3,5.5,7.2c0.1,3.1,2.6,5.6,5.8,5.6
			c0.8,0,1.6-0.2,2.4-0.5c1,1.7,2.9,2.8,5,2.8c3.2,0,5.8-2.6,5.8-5.7v-7c0-1.1-0.3-2.1-0.8-3c0.5-0.9,0.8-2,0.8-3.1v-9
			c0-1.8-0.8-3.6-2.1-4.8C27.7,26.8,28.5,25.1,28.5,23.4z M26.5,23.4L26.5,23.4L26.5,23.4c0,1.4-0.7,2.7-1.9,3.4
			c-1.4-0.7-4-1.2-6.4,0.8c-0.4,0.4-0.5,1-0.1,1.4c0.2,0.2,0.5,0.4,0.8,0.4c0.2,0,0.5-0.1,0.7-0.2c2.2-1.8,4.2-0.5,4.4-0.3
			c0,0,0,0,0,0c0,0,0,0,0.1,0c1.5,0.8,2.4,2.3,2.4,3.9v9c0,0.9-0.3,1.7-0.8,2.5c-0.2,0.2-1.6,1.4-3.9,1.4c-0.1,0-0.2,0-0.2,0
			c0,0,0,0,0,0c-0.6,0-1,0.4-1,1c0,0.6,0.4,1,1,1c0.1,0,0.2,0,0.3,0c2,0,3.5-0.7,4.4-1.3c0.2,0.5,0.3,0.9,0.3,1.4v7
			c0,2-1.7,3.7-3.8,3.7c-1.6,0-3.1-1-3.6-2.5c0,0,0,0,0-0.1c0-0.1-0.1-0.2-0.1-0.2c-0.1-0.2-1-1.5,0.2-3.4c0.4,0.2,0.9,0.3,1.4,0.3
			c1.1,0,2.1-0.5,2.8-1.4c0.3-0.5,0.2-1.1-0.2-1.4c-0.5-0.3-1.1-0.2-1.4,0.2c-0.4,0.6-1.3,0.7-1.9,0.3c-0.6-0.4-0.7-1.3-0.3-1.9
			c0.3-0.5,0.2-1.1-0.2-1.4c-0.5-0.3-1.1-0.2-1.4,0.2c-0.8,1.1-0.8,2.6-0.2,3.7c-1.4,1.9-1.3,3.7-0.9,5c-0.5,0.2-0.9,0.3-1.4,0.3
			c-2.1,0-3.8-1.7-3.8-3.7c0-0.2,0-0.4,0-0.5c0,0,0-0.1,0-0.1c0,0,0-0.1,0-0.1c-0.2-1.8,1.1-3.1,1.2-3.1c0.4-0.4,0.4-1,0-1.4
			c-0.4-0.4-1-0.4-1.5,0c-0.1,0.1-1.4,1.4-1.7,3.3c-2.1-0.8-3.5-2.8-3.5-5.1c0-1.1,0.4-2.2,1-3.2c0,0,0,0,0,0
			c0.1-0.1,0.1-0.2,0.1-0.3c0.7-2.1,2.9-2.6,4.2-2.7c0.4,2.8,2.8,5.1,5.8,5.1c3.2,0,5.9-2.6,5.9-5.8c0-1-0.3-1.9-0.7-2.8
			c1-0.4,1.9-1.2,2.3-2.3c0.2-0.5-0.1-1.1-0.6-1.3c-0.5-0.2-1.1,0.1-1.3,0.6c-0.4,1.1-1.6,1.6-2.8,1.2c-1.1-0.4-1.7-1.6-1.3-2.7
			c0.2-0.5-0.1-1.1-0.6-1.3c-0.5-0.2-1.1,0.1-1.3,0.6c-0.8,2.1,0.3,4.5,2.5,5.3c0.3,0.1,0.6,0.2,0.9,0.2c0,0,0,0,0,0.1
			c0.6,0.7,0.9,1.5,0.9,2.4c0,2.1-1.7,3.7-3.8,3.7c-2.1,0-3.8-1.7-3.8-3.7c0-1.1,0.5-2.2,1.4-2.9c0.4-0.4,0.5-1,0.1-1.4
			c-0.4-0.4-1-0.5-1.5-0.1c-1,0.8-1.7,1.9-2,3.1c-1.5,0.1-4.3,0.6-5.8,3c-1.3-0.9-2.1-2.3-2.1-3.9c0-1.1,0.4-2.2,1.1-3c0,0,0,0,0,0
			c0,0,0,0,0.1-0.1C5.4,32.4,6,32,6.4,31.9c0.3,1.3,1.1,2.4,2.3,3.1c0.2,0.1,0.3,0.1,0.5,0.1c0.4,0,0.7-0.2,0.9-0.5
			c0.3-0.5,0.1-1.1-0.4-1.4c-0.9-0.5-1.4-1.4-1.4-2.4c0-1.2,0.8-2.2,1.9-2.6c0.5-0.2,0.8-0.7,0.7-1.3c-0.2-0.5-0.8-0.8-1.3-0.7
			c-1.6,0.5-2.9,1.9-3.2,3.5c-0.6,0.1-1.5,0.3-2.2,1c-0.3-0.7-0.5-1.5-0.5-2.3c0-2.2,1.2-4.2,3.2-5.3c0,0,0,0,0.1,0c0,0,0.1,0,0.1,0
			c0.1-0.1,2.8-2,6.1-0.1c-1.1,1.7-1,4,0.5,5.6c0.2,0.2,0.5,0.3,0.8,0.3c0.2,0,0.5-0.1,0.7-0.3c0.4-0.4,0.5-1,0.1-1.4
			c-1-1.1-0.9-2.9,0.3-3.9c0.6-0.5,1.3-0.7,2-0.7c0.7,0,1.4,0.4,1.9,0.9c0.4,0.4,1,0.5,1.5,0.1c0.4-0.4,0.5-1,0.1-1.4
			c-0.9-1-2-1.5-3.3-1.6c-1.1-0.1-2.1,0.2-3,0.8c-3-1.9-5.9-1.5-7.7-0.7c-0.1-0.3-0.1-0.6-0.1-0.9c0-1.7,1.2-3.2,2.9-3.6
			c0.2,0.9,0.7,2.1,1.6,2.7c0.2,0.1,0.4,0.2,0.6,0.2c0.3,0,0.7-0.2,0.9-0.5c0.3-0.5,0.2-1.1-0.3-1.4c-0.5-0.3-0.8-1.4-0.8-2
			c0-0.1,0-0.1,0-0.2c0-0.2,0-0.3,0-0.5c0-1.8,1.3-3.2,2.9-3.6c0.1,1.2,0.5,3.2,1.8,4.6c0.9,1,2.2,1.6,3.7,1.8
			c0.6,1.1,1.7,1.8,2.9,1.8c0.4,0,0.7-0.1,1.1-0.2c0.5-0.2,0.8-0.8,0.6-1.3s-0.8-0.8-1.3-0.6c-0.6,0.2-1.3-0.1-1.5-0.7
			c-0.2-0.6,0.1-1.3,0.7-1.5c0.5-0.2,0.8-0.8,0.6-1.3c-0.2-0.5-0.8-0.8-1.3-0.6c-1.1,0.4-1.9,1.3-2.1,2.4c-0.8-0.2-1.4-0.5-1.9-1.1
			c-1.3-1.4-1.3-3.7-1.3-4.2C17,8.9,18.2,8,19.6,8c0.4,0,0.7,0.1,1.1,0.2c0.2,1,0.8,2.7,2.2,3.5c0.2,0.1,0.3,0.1,0.5,0.1
			c0.4,0,0.7-0.2,0.9-0.5c0.3-0.5,0.1-1.1-0.4-1.4c-0.6-0.4-1.1-1.5-1.3-2.3c0.4-0.6,1-1,1.8-1c1.2,0,2.1,0.9,2.1,2.1L26.5,23.4
			L26.5,23.4z"/>
	</g>
</g>
<g>
	<path class="st0" d="M73.6,44.5c0.6,0,1.3,0,1.9-0.1c0.6-0.1,1.1-0.2,1.4-0.3v2.8c-0.4,0.2-1,0.3-1.7,0.5c-0.8,0.1-1.5,0.2-2.1,0.2
		c-4.6,0-6.9-2.4-6.9-7.3V26h-3.4v-1.7l3.4-1.5l1.5-5.1h2.1v5.5h6.9V26h-6.9V40c0,1.4,0.3,2.5,1,3.3C71.5,44.1,72.5,44.5,73.6,44.5z
		"/>
	<path class="st0" d="M93.6,47.1V31.6c0-1.9-0.4-3.4-1.3-4.4c-0.9-1-2.3-1.4-4.2-1.4c-2.5,0-4.4,0.7-5.5,2.1
		c-1.2,1.4-1.7,3.6-1.7,6.7v12.5h-3.6v-34h3.6v10.3c0,1.2-0.1,2.3-0.2,3.1h0.2c0.7-1.1,1.7-2.1,3-2.7c1.3-0.7,2.8-1,4.5-1
		c2.9,0,5.1,0.7,6.6,2.1c1.5,1.4,2.2,3.6,2.2,6.6v15.6H93.6z"/>
	<path class="st0" d="M120.8,35.1c0,3.9-1,6.9-2.9,9.1c-2,2.2-4.7,3.3-8.1,3.3c-2.1,0-4-0.5-5.7-1.5c-1.7-1-2.9-2.4-3.8-4.3
		c-0.9-1.9-1.4-4.1-1.4-6.6c0-3.9,1-6.9,2.9-9.1c1.9-2.2,4.7-3.3,8.1-3.3c3.3,0,6,1.1,8,3.3C119.8,28.3,120.8,31.3,120.8,35.1z
		 M102.6,35.1c0,3.1,0.6,5.4,1.8,7c1.2,1.6,3,2.4,5.4,2.4c2.4,0,4.2-0.8,5.4-2.4c1.2-1.6,1.8-3.9,1.8-7c0-3-0.6-5.3-1.8-6.9
		c-1.2-1.6-3-2.4-5.4-2.4c-2.4,0-4.2,0.8-5.4,2.3C103.2,29.7,102.6,32,102.6,35.1z"/>
	<path class="st0" d="M126.1,23.1v15.5c0,1.9,0.4,3.4,1.3,4.4c0.9,1,2.3,1.4,4.2,1.4c2.5,0,4.3-0.7,5.5-2.1c1.2-1.4,1.7-3.6,1.7-6.7
		V23.1h3.6v23.9h-3l-0.5-3.2h-0.2c-0.7,1.2-1.8,2.1-3.1,2.7c-1.3,0.6-2.8,0.9-4.5,0.9c-2.9,0-5.1-0.7-6.5-2.1
		c-1.4-1.4-2.2-3.6-2.2-6.6V23.1H126.1z"/>
	<path class="st0" d="M165.2,23.1v2.3l-4.4,0.5c0.4,0.5,0.8,1.2,1.1,2c0.3,0.8,0.5,1.7,0.5,2.8c0,2.3-0.8,4.2-2.4,5.6
		c-1.6,1.4-3.8,2.1-6.6,2.1c-0.7,0-1.4-0.1-2-0.2c-1.5,0.8-2.3,1.8-2.3,3.1c0,0.7,0.3,1.1,0.8,1.5c0.5,0.3,1.5,0.5,2.8,0.5h4.2
		c2.6,0,4.6,0.5,6,1.6c1.4,1.1,2.1,2.7,2.1,4.8c0,2.6-1.1,4.7-3.2,6.1c-2.1,1.4-5.2,2.1-9.3,2.1c-3.1,0-5.5-0.6-7.2-1.7
		c-1.7-1.2-2.5-2.8-2.5-4.9c0-1.5,0.5-2.7,1.4-3.8c0.9-1.1,2.2-1.8,3.9-2.2c-0.6-0.3-1.1-0.7-1.5-1.3c-0.4-0.6-0.6-1.3-0.6-2
		c0-0.9,0.2-1.6,0.7-2.3c0.5-0.7,1.2-1.3,2.2-1.9c-1.2-0.5-2.2-1.4-3-2.6c-0.8-1.2-1.2-2.6-1.2-4.2c0-2.6,0.8-4.6,2.4-6.1
		s3.8-2.1,6.7-2.1c1.3,0,2.4,0.1,3.4,0.4H165.2z M146.2,51.1c0,1.3,0.5,2.3,1.6,2.9c1.1,0.7,2.7,1,4.7,1c3,0,5.3-0.5,6.8-1.4
		c1.5-0.9,2.2-2.1,2.2-3.7c0-1.3-0.4-2.2-1.2-2.7c-0.8-0.5-2.3-0.8-4.5-0.8h-4.3c-1.6,0-2.9,0.4-3.8,1.2
		C146.6,48.5,146.2,49.6,146.2,51.1z M148.1,30.8c0,1.7,0.5,2.9,1.4,3.8c0.9,0.9,2.3,1.3,3.9,1.3c3.5,0,5.3-1.7,5.3-5.1
		c0-3.6-1.8-5.4-5.4-5.4c-1.7,0-3,0.5-3.9,1.4C148.6,27.6,148.1,29,148.1,30.8z"/>
	<path class="st0" d="M182,47.1V31.6c0-1.9-0.4-3.4-1.3-4.4c-0.9-1-2.3-1.4-4.2-1.4c-2.5,0-4.4,0.7-5.5,2.1
		c-1.2,1.4-1.7,3.6-1.7,6.7v12.5h-3.6v-34h3.6v10.3c0,1.2-0.1,2.3-0.2,3.1h0.2c0.7-1.1,1.7-2.1,3-2.7c1.3-0.7,2.8-1,4.5-1
		c2.9,0,5.1,0.7,6.6,2.1c1.5,1.4,2.2,3.6,2.2,6.6v15.6H182z"/>
	<path class="st0" d="M196.4,44.5c0.6,0,1.3,0,1.9-0.1c0.6-0.1,1.1-0.2,1.4-0.3v2.8c-0.4,0.2-1,0.3-1.7,0.5
		c-0.8,0.1-1.5,0.2-2.1,0.2c-4.6,0-6.9-2.4-6.9-7.3V26h-3.4v-1.7l3.4-1.5l1.5-5.1h2.1v5.5h6.9V26h-6.9V40c0,1.4,0.3,2.5,1,3.3
		C194.2,44.1,195.2,44.5,196.4,44.5z"/>
	<path class="st0" d="M214.1,21.9c2.7,0,4.8,1.1,6.4,3.4c1.6,2.3,2.4,5.4,2.4,9.4c0,4-0.8,7.2-2.4,9.4c-1.6,2.3-3.8,3.4-6.6,3.4
		c-0.9,0-1.7-0.1-2.4-0.3c-0.7-0.2-1.3-0.5-1.9-0.8c-0.6-0.3-1.2-0.9-2-1.7h-0.5l-1.4,2.4H199v-34h8.5v7.7c0,0.9-0.1,2.5-0.3,4.7
		h0.3c0.8-1.3,1.8-2.2,2.9-2.8C211.5,22.2,212.8,21.9,214.1,21.9z M211,28.6c-1.2,0-2.1,0.4-2.6,1.2c-0.6,0.8-0.8,2.1-0.8,3.9v1.2
		c0,2,0.3,3.5,0.8,4.4c0.6,0.9,1.5,1.3,2.7,1.3c1,0,1.8-0.5,2.3-1.5c0.5-1,0.8-2.5,0.8-4.5C214.2,30.6,213.2,28.6,211,28.6z"/>
	<path class="st0" d="M239.4,47.1l-1.6-3.3h-0.2c-1.1,1.4-2.3,2.4-3.5,2.9c-1.2,0.5-2.7,0.8-4.6,0.8c-2.3,0-4.2-0.7-5.5-2.1
		s-2-3.4-2-5.9c0-2.6,0.9-4.6,2.7-5.9c1.8-1.3,4.5-2,8-2.2l4.1-0.1V31c0-2-1-3.1-3-3.1c-1.8,0-4.1,0.6-6.9,1.8l-2.5-5.6
		c2.9-1.5,6.5-2.2,10.9-2.2c3.2,0,5.6,0.8,7.4,2.4s2.6,3.8,2.6,6.6v16.2H239.4z M233.1,41.5c1,0,1.9-0.3,2.7-1
		c0.7-0.7,1.1-1.5,1.1-2.6V36l-2,0.1c-2.8,0.1-4.2,1.1-4.2,3.1C230.7,40.7,231.5,41.5,233.1,41.5z"/>
	<path class="st0" d="M262.3,47.1V33.6c0-1.6-0.2-2.9-0.7-3.7c-0.5-0.8-1.2-1.3-2.3-1.3c-1.4,0-2.5,0.6-3.1,1.7
		c-0.6,1.1-1,3.1-1,5.9v10.8h-8.5V22.3h6.4l1.1,3.1h0.5c0.7-1.2,1.7-2,3-2.6c1.3-0.6,2.8-0.9,4.4-0.9c2.7,0,4.9,0.8,6.4,2.4
		c1.5,1.6,2.3,3.8,2.3,6.7v16.1H262.3z"/>
	<path class="st0" d="M280.4,33.2c1-1.6,1.9-2.9,2.6-3.8l5.5-7h9.5l-8.6,10.5l9.1,14.2h-9.8l-5.4-8.9l-2.8,2.1v6.7h-8.6v-34h8.6
		v13.4c0,2.3-0.2,4.5-0.5,6.7H280.4z"/>
</g>
</svg>
